# xmcd
#
# Track frame offsets:
#	180
#	25915
#	45169
#	64676
#
# Disc length: 1183 seconds
#
# Revision: 0
# Processed by: cddbd v1.5.2PL0 Copyright (c) Steve Scherf et al.
# Submitted via: EasyCDDAExtractor 11.5.0.1
#
DISCID=26049d04
DTITLE=Syleena Johnson - Baby I'm Scared Of You
DYEAR=1900
DGENRE=R&B
TTITLE0=Baby I'm Scared Of You
TTITLE1=You're Not The Man You Used To Be
TTITLE2=I Can't Get Over You
TTITLE3=It Don't Matter
EXTD=
EXTT0=
EXTT1=
EXTT2=
EXTT3=
PLAYORDER=
